<?xml version="1.0" encoding="utf-8"?>
<!-- Generator: Adobe Illustrator 24.0.0, SVG Export Plug-In . SVG Version: 6.00 Build 0)  -->
<svg version="1.1" id="Calque_1" xmlns="http://www.w3.org/2000/svg" xmlns:xlink="http://www.w3.org/1999/xlink" x="0px" y="0px"
	 viewBox="0 0 422 90" style="enable-background:new 0 0 422 90;" xml:space="preserve">
<style type="text/css">
	.st0{fill:url(#SVGID_1_);}
	.st1{fill:#FFFFFF;}
	.st2{fill:none;stroke:#000000;stroke-miterlimit:10;}
	.st3{fill:none;stroke:#000000;stroke-miterlimit:10;stroke-dasharray:2.0184,2.0184;}
	.st4{fill:none;stroke:#000000;stroke-miterlimit:10;stroke-dasharray:1.9992,1.9992;}
	.st5{fill:none;stroke:#000000;stroke-miterlimit:10;stroke-dasharray:2;}
	.st6{enable-background:new    ;}
	.st7{fill:#E23237;}
	.st8{fill:#B52E31;}
	.st9{fill:#5D5A77;}
	.st10{fill:#3930E5;}
	.st11{fill:#4DAA2B;}
	.st12{fill:#A848BC;}
	.st13{fill:#7ECC5E;}
</style>
<g id="Calque_1_1_">
	<g>
		
			<linearGradient id="SVGID_1_" gradientUnits="userSpaceOnUse" x1="206.5" y1="-17.6245" x2="206.5" y2="106.3755" gradientTransform="matrix(1 0 0 -1 0 92)">
			<stop  offset="0" style="stop-color:#FFFFFF"/>
			<stop  offset="1" style="stop-color:#600000"/>
		</linearGradient>
		<rect x="-12.5" y="-11.5" class="st0" width="438" height="124"/>
		<path class="st1" d="M425-11v123H-12V-11H425 M426-12H-13v125h439V-12L426-12z"/>
	</g>
	<g>
		<g>
			<line class="st2" x1="117.7" y1="48.2" x2="118.7" y2="48.2"/>
			<polyline class="st3" points="120.7,48.2 197.5,48.2 245.6,13.3 			"/>
			<polyline class="st2" points="246.4,12.7 247.2,12.1 248,12.7 			"/>
			<polyline class="st4" points="249.6,13.8 298.4,48.2 319.8,76.3 			"/>
			<line class="st2" x1="320.4" y1="77.1" x2="321" y2="77.9"/>
		</g>
	</g>
	<line class="st5" x1="293.6" y1="46.5" x2="272.6" y2="76.6"/>
	<g class="st6">
		<path d="M144,45.5V39h2.2c0.5,0,0.9,0,1.2,0.1c0.4,0.1,0.7,0.2,0.9,0.5c0.3,0.3,0.6,0.7,0.8,1.1c0.2,0.4,0.3,1,0.3,1.5
			c0,0.5-0.1,0.9-0.2,1.3c-0.1,0.4-0.3,0.7-0.4,0.9c-0.2,0.2-0.4,0.4-0.6,0.6s-0.5,0.3-0.8,0.3c-0.3,0.1-0.6,0.1-1,0.1H144z
			 M144.8,44.7h1.4c0.4,0,0.8,0,1-0.1c0.2-0.1,0.4-0.2,0.6-0.3c0.2-0.2,0.4-0.5,0.5-0.8s0.2-0.8,0.2-1.2c0-0.7-0.1-1.2-0.3-1.6
			s-0.5-0.6-0.8-0.7c-0.2-0.1-0.6-0.1-1.1-0.1h-1.4V44.7z"/>
		<path d="M150.3,42.3c0-1.1,0.3-1.9,0.9-2.5c0.6-0.6,1.3-0.9,2.2-0.9c0.6,0,1.1,0.1,1.6,0.4c0.5,0.3,0.8,0.7,1.1,1.2
			c0.3,0.5,0.4,1.1,0.4,1.7c0,0.7-0.1,1.2-0.4,1.8s-0.6,0.9-1.1,1.2c-0.5,0.3-1,0.4-1.6,0.4c-0.6,0-1.2-0.1-1.6-0.4
			c-0.5-0.3-0.8-0.7-1.1-1.2S150.3,42.9,150.3,42.3z M151.1,42.3c0,0.8,0.2,1.4,0.6,1.8c0.4,0.4,0.9,0.7,1.6,0.7
			c0.6,0,1.2-0.2,1.6-0.7c0.4-0.5,0.6-1.1,0.6-1.9c0-0.5-0.1-1-0.3-1.4c-0.2-0.4-0.4-0.7-0.8-0.9c-0.3-0.2-0.7-0.3-1.2-0.3
			c-0.6,0-1.1,0.2-1.6,0.6C151.4,40.7,151.1,41.3,151.1,42.3z"/>
		<path d="M157.5,45.5V39h1.3l1.5,4.6c0.1,0.4,0.2,0.7,0.3,1c0.1-0.2,0.2-0.6,0.3-1l1.5-4.5h1.2v6.5h-0.8V40l-1.9,5.4h-0.8l-1.9-5.5
			v5.5H157.5z"/>
	</g>
	<g class="st6">
		<path d="M128.3,56.3v-4.7h0.7v0.7c0.1-0.2,0.3-0.4,0.6-0.6s0.5-0.2,0.8-0.2c0.3,0,0.6,0.1,0.9,0.2c0.2,0.1,0.4,0.3,0.5,0.6
			c0.4-0.5,0.9-0.8,1.4-0.8c0.5,0,0.8,0.1,1.1,0.4c0.3,0.3,0.4,0.7,0.4,1.2v3.2h-0.8v-3c0-0.3,0-0.5-0.1-0.7
			c-0.1-0.1-0.1-0.3-0.3-0.3c-0.1-0.1-0.3-0.1-0.5-0.1c-0.3,0-0.6,0.1-0.8,0.3c-0.2,0.2-0.3,0.6-0.3,1.1v2.7h-0.8v-3
			c0-0.4-0.1-0.6-0.2-0.8c-0.1-0.2-0.3-0.3-0.6-0.3c-0.2,0-0.4,0.1-0.6,0.2c-0.2,0.1-0.3,0.3-0.4,0.5c-0.1,0.2-0.1,0.6-0.1,1v2.4
			H128.3z"/>
		<path d="M138.9,55.7c-0.3,0.3-0.6,0.4-0.8,0.5c-0.3,0.1-0.6,0.2-0.9,0.2c-0.5,0-0.9-0.1-1.2-0.4c-0.3-0.3-0.4-0.6-0.4-1
			c0-0.2,0.1-0.4,0.2-0.6c0.1-0.2,0.2-0.3,0.4-0.5c0.2-0.1,0.4-0.2,0.6-0.3c0.2,0,0.4-0.1,0.7-0.1c0.6-0.1,1.1-0.2,1.4-0.3
			c0-0.1,0-0.2,0-0.2c0-0.3-0.1-0.6-0.2-0.7c-0.2-0.2-0.5-0.3-0.9-0.3c-0.4,0-0.6,0.1-0.8,0.2c-0.2,0.1-0.3,0.4-0.4,0.7l-0.8-0.1
			c0.1-0.3,0.2-0.6,0.3-0.8c0.2-0.2,0.4-0.4,0.7-0.5c0.3-0.1,0.7-0.2,1.1-0.2c0.4,0,0.7,0,1,0.1s0.4,0.2,0.6,0.4
			c0.1,0.1,0.2,0.3,0.2,0.5c0,0.1,0,0.4,0,0.7v1.1c0,0.7,0,1.2,0.1,1.4s0.1,0.4,0.2,0.6H139C138.9,56.1,138.9,55.9,138.9,55.7z
			 M138.8,53.9c-0.3,0.1-0.7,0.2-1.3,0.3c-0.3,0-0.6,0.1-0.7,0.2s-0.2,0.1-0.3,0.3c-0.1,0.1-0.1,0.2-0.1,0.4c0,0.2,0.1,0.4,0.2,0.5
			c0.2,0.1,0.4,0.2,0.7,0.2c0.3,0,0.6-0.1,0.8-0.2s0.4-0.3,0.5-0.5c0.1-0.2,0.1-0.4,0.1-0.8V53.9z"/>
		<path d="M140.8,56.3v-4.7h0.7v0.7c0.3-0.5,0.8-0.8,1.5-0.8c0.3,0,0.5,0.1,0.8,0.2s0.4,0.2,0.5,0.4c0.1,0.2,0.2,0.4,0.2,0.6
			c0,0.1,0,0.4,0,0.8v2.9h-0.8v-2.9c0-0.3,0-0.6-0.1-0.7c-0.1-0.2-0.2-0.3-0.3-0.4c-0.2-0.1-0.3-0.1-0.6-0.1c-0.3,0-0.6,0.1-0.9,0.3
			s-0.4,0.6-0.4,1.2v2.6H140.8z"/>
		<path d="M145.9,50.7v-0.9h0.8v0.9H145.9z M145.9,56.3v-4.7h0.8v4.7H145.9z"/>
		<path d="M147.9,58.1v-6.5h0.7v0.6c0.2-0.2,0.4-0.4,0.6-0.5c0.2-0.1,0.5-0.2,0.8-0.2c0.4,0,0.8,0.1,1.1,0.3
			c0.3,0.2,0.5,0.5,0.7,0.9s0.2,0.8,0.2,1.2c0,0.5-0.1,0.9-0.3,1.3c-0.2,0.4-0.4,0.7-0.8,0.9c-0.3,0.2-0.7,0.3-1,0.3
			c-0.3,0-0.5-0.1-0.7-0.2c-0.2-0.1-0.4-0.3-0.5-0.4v2.3H147.9z M148.6,54c0,0.6,0.1,1,0.4,1.3s0.5,0.4,0.9,0.4
			c0.4,0,0.7-0.1,0.9-0.4c0.3-0.3,0.4-0.8,0.4-1.4c0-0.6-0.1-1-0.4-1.3s-0.5-0.4-0.9-0.4c-0.3,0-0.6,0.2-0.9,0.5
			C148.7,52.9,148.6,53.4,148.6,54z"/>
		<path d="M156,56.3v-0.7c-0.4,0.5-0.9,0.8-1.5,0.8c-0.3,0-0.5-0.1-0.8-0.2c-0.2-0.1-0.4-0.2-0.5-0.4s-0.2-0.4-0.2-0.6
			c0-0.2,0-0.4,0-0.7v-2.9h0.8v2.6c0,0.4,0,0.7,0,0.8c0,0.2,0.2,0.4,0.3,0.5s0.4,0.2,0.6,0.2s0.5-0.1,0.7-0.2
			c0.2-0.1,0.4-0.3,0.4-0.5c0.1-0.2,0.1-0.5,0.1-0.9v-2.5h0.8v4.7H156z"/>
		<path d="M157.9,56.3v-6.5h0.8v6.5H157.9z"/>
		<path d="M163,55.7c-0.3,0.3-0.6,0.4-0.8,0.5c-0.3,0.1-0.6,0.2-0.9,0.2c-0.5,0-0.9-0.1-1.2-0.4c-0.3-0.3-0.4-0.6-0.4-1
			c0-0.2,0.1-0.4,0.2-0.6c0.1-0.2,0.2-0.3,0.4-0.5c0.2-0.1,0.4-0.2,0.6-0.3c0.2,0,0.4-0.1,0.7-0.1c0.6-0.1,1.1-0.2,1.4-0.3
			c0-0.1,0-0.2,0-0.2c0-0.3-0.1-0.6-0.2-0.7c-0.2-0.2-0.5-0.3-0.9-0.3c-0.4,0-0.6,0.1-0.8,0.2c-0.2,0.1-0.3,0.4-0.4,0.7l-0.8-0.1
			c0.1-0.3,0.2-0.6,0.3-0.8c0.2-0.2,0.4-0.4,0.7-0.5c0.3-0.1,0.7-0.2,1.1-0.2c0.4,0,0.7,0,1,0.1s0.4,0.2,0.6,0.4
			c0.1,0.1,0.2,0.3,0.2,0.5c0,0.1,0,0.4,0,0.7v1.1c0,0.7,0,1.2,0.1,1.4s0.1,0.4,0.2,0.6h-0.8C163.1,56.1,163,55.9,163,55.7z
			 M162.9,53.9c-0.3,0.1-0.7,0.2-1.3,0.3c-0.3,0-0.6,0.1-0.7,0.2s-0.2,0.1-0.3,0.3c-0.1,0.1-0.1,0.2-0.1,0.4c0,0.2,0.1,0.4,0.2,0.5
			c0.2,0.1,0.4,0.2,0.7,0.2c0.3,0,0.6-0.1,0.8-0.2s0.4-0.3,0.5-0.5c0.1-0.2,0.1-0.4,0.1-0.8V53.9z"/>
		<path d="M166.7,55.6l0.1,0.7c-0.2,0-0.4,0.1-0.6,0.1c-0.3,0-0.5,0-0.7-0.1c-0.2-0.1-0.3-0.2-0.3-0.4c-0.1-0.1-0.1-0.5-0.1-0.9
			v-2.7h-0.6v-0.6h0.6v-1.2l0.8-0.5v1.6h0.8v0.6h-0.8V55c0,0.2,0,0.4,0,0.4c0,0.1,0.1,0.1,0.1,0.2c0.1,0,0.2,0.1,0.3,0.1
			C166.4,55.6,166.5,55.6,166.7,55.6z"/>
		<path d="M167.5,50.7v-0.9h0.8v0.9H167.5z M167.5,56.3v-4.7h0.8v4.7H167.5z"/>
		<path d="M169.2,54c0-0.9,0.2-1.5,0.7-1.9c0.4-0.3,0.9-0.5,1.5-0.5c0.6,0,1.2,0.2,1.6,0.6c0.4,0.4,0.6,1,0.6,1.7
			c0,0.6-0.1,1.1-0.3,1.4c-0.2,0.3-0.4,0.6-0.8,0.8s-0.7,0.3-1.1,0.3c-0.7,0-1.2-0.2-1.6-0.6C169.4,55.4,169.2,54.7,169.2,54z
			 M170,54c0,0.6,0.1,1,0.4,1.3c0.3,0.3,0.6,0.4,1,0.4c0.4,0,0.7-0.2,1-0.5c0.3-0.3,0.4-0.8,0.4-1.4c0-0.6-0.1-1-0.4-1.3
			s-0.6-0.4-1-0.4c-0.4,0-0.7,0.1-1,0.4S170,53.4,170,54z"/>
		<path d="M174.5,56.3v-4.7h0.7v0.7c0.3-0.5,0.8-0.8,1.5-0.8c0.3,0,0.5,0.1,0.8,0.2s0.4,0.2,0.5,0.4c0.1,0.2,0.2,0.4,0.2,0.6
			c0,0.1,0,0.4,0,0.8v2.9h-0.8v-2.9c0-0.3,0-0.6-0.1-0.7c-0.1-0.2-0.2-0.3-0.3-0.4c-0.2-0.1-0.3-0.1-0.6-0.1c-0.3,0-0.6,0.1-0.9,0.3
			s-0.4,0.6-0.4,1.2v2.6H174.5z"/>
	</g>
</g>
<g>
	<path class="st7" d="M80.3,35l22.1-7.9l22.7,7.8l-3.7,29.3l-19.1,10.6L83.7,64.3L80.3,35z"/>
	<path class="st8" d="M125.2,34.9l-22.7-7.8v47.6l19.1-10.5L125.2,34.9L125.2,34.9z"/>
	<path class="st1" d="M102.5,32.7L88.7,63.4l5.2-0.1l2.8-6.9H109l3,7l4.9,0.1L102.5,32.7L102.5,32.7z M102.5,42.5l4.7,9.8h-8.8
		L102.5,42.5L102.5,42.5z"/>
</g>
<g>
	<polygon class="st9" points="200,30.6 214.3,35.4 212.7,54.5 200,60.8 187.3,54.5 184.1,35.4 	"/>
</g>
<g class="st6">
	<path class="st1" d="M188.9,48.8v-7.5h0.9V44c0.4-0.5,1-0.7,1.6-0.7c0.4,0,0.8,0.1,1.1,0.2c0.3,0.2,0.5,0.4,0.6,0.7
		c0.1,0.3,0.2,0.7,0.2,1.2v3.4h-0.9v-3.4c0-0.5-0.1-0.8-0.3-1c-0.2-0.2-0.5-0.3-0.8-0.3c-0.3,0-0.5,0.1-0.8,0.2s-0.4,0.3-0.5,0.6
		c-0.1,0.2-0.2,0.6-0.2,1v3H188.9z"/>
	<path class="st1" d="M198.4,47l1,0.1c-0.2,0.6-0.4,1-0.8,1.3s-0.9,0.5-1.6,0.5c-0.8,0-1.4-0.2-1.9-0.7s-0.7-1.2-0.7-2.1
		c0-0.9,0.2-1.6,0.7-2.1c0.5-0.5,1.1-0.8,1.8-0.8c0.7,0,1.3,0.2,1.8,0.7c0.5,0.5,0.7,1.2,0.7,2.1c0,0.1,0,0.1,0,0.2h-4.1
		c0,0.6,0.2,1.1,0.5,1.4c0.3,0.3,0.7,0.5,1.1,0.5c0.3,0,0.6-0.1,0.9-0.3C198.1,47.7,198.3,47.4,198.4,47z M195.4,45.6h3
		c0-0.5-0.2-0.8-0.3-1c-0.3-0.4-0.7-0.5-1.1-0.5c-0.4,0-0.8,0.1-1.1,0.4C195.6,44.7,195.4,45.1,195.4,45.6z"/>
	<path class="st1" d="M204.1,48.1c-0.3,0.3-0.7,0.5-1,0.6c-0.3,0.1-0.7,0.2-1,0.2c-0.6,0-1.1-0.1-1.4-0.4c-0.3-0.3-0.5-0.7-0.5-1.1
		c0-0.3,0.1-0.5,0.2-0.7c0.1-0.2,0.3-0.4,0.5-0.5c0.2-0.1,0.4-0.2,0.7-0.3c0.2,0,0.5-0.1,0.8-0.1c0.7-0.1,1.3-0.2,1.6-0.3
		c0-0.1,0-0.2,0-0.2c0-0.4-0.1-0.6-0.3-0.8c-0.2-0.2-0.6-0.3-1.1-0.3c-0.4,0-0.8,0.1-1,0.2c-0.2,0.2-0.4,0.4-0.5,0.8l-0.9-0.1
		c0.1-0.4,0.2-0.7,0.4-0.9s0.5-0.4,0.8-0.5c0.4-0.1,0.8-0.2,1.2-0.2c0.5,0,0.8,0.1,1.1,0.2c0.3,0.1,0.5,0.2,0.6,0.4s0.2,0.4,0.3,0.6
		c0,0.2,0,0.4,0,0.9v1.2c0,0.9,0,1.4,0.1,1.6c0,0.2,0.1,0.4,0.2,0.7h-1C204.2,48.6,204.1,48.4,204.1,48.1z M204,46.1
		c-0.3,0.1-0.8,0.3-1.5,0.3c-0.4,0.1-0.6,0.1-0.8,0.2c-0.2,0.1-0.3,0.2-0.4,0.3c-0.1,0.1-0.1,0.3-0.1,0.4c0,0.2,0.1,0.5,0.3,0.6
		s0.5,0.2,0.8,0.2c0.4,0,0.7-0.1,0.9-0.2s0.5-0.4,0.6-0.6c0.1-0.2,0.1-0.5,0.1-0.9V46.1z"/>
	<path class="st1" d="M209.9,48.8v-0.7c-0.3,0.5-0.9,0.8-1.5,0.8c-0.4,0-0.8-0.1-1.2-0.4c-0.4-0.2-0.6-0.6-0.8-1
		c-0.2-0.4-0.3-0.9-0.3-1.5c0-0.5,0.1-1,0.3-1.5c0.2-0.4,0.5-0.8,0.8-1c0.4-0.2,0.8-0.4,1.2-0.4c0.3,0,0.6,0.1,0.9,0.2
		c0.3,0.1,0.5,0.3,0.6,0.5v-2.7h0.9v7.5H209.9z M207,46.1c0,0.7,0.1,1.2,0.4,1.6c0.3,0.3,0.6,0.5,1,0.5c0.4,0,0.7-0.2,1-0.5
		c0.3-0.3,0.4-0.8,0.4-1.5c0-0.7-0.1-1.3-0.4-1.6c-0.3-0.3-0.6-0.5-1.1-0.5c-0.4,0-0.8,0.2-1,0.5C207.1,44.8,207,45.4,207,46.1z"/>
</g>
<g>
	<polygon class="st10" points="296.8,27.9 311.1,32.7 309.5,51.8 296.8,58.1 284.1,51.8 280.9,32.7 	"/>
</g>
<g class="st6">
	<path class="st1" d="M287.1,46.1h-0.9v-7.5h0.9v2.7c0.4-0.5,0.9-0.7,1.5-0.7c0.3,0,0.7,0.1,1,0.2s0.5,0.3,0.7,0.6
		c0.2,0.2,0.3,0.5,0.5,0.9c0.1,0.3,0.2,0.7,0.2,1.1c0,0.9-0.2,1.7-0.7,2.2s-1,0.8-1.7,0.8c-0.6,0-1.1-0.3-1.5-0.8V46.1z M287.1,43.3
		c0,0.7,0.1,1.1,0.3,1.4c0.3,0.5,0.7,0.7,1.2,0.7c0.4,0,0.8-0.2,1-0.5c0.3-0.3,0.4-0.9,0.4-1.6c0-0.7-0.1-1.2-0.4-1.6
		c-0.3-0.3-0.6-0.5-1-0.5c-0.4,0-0.8,0.2-1,0.5C287.3,42.2,287.1,42.7,287.1,43.3z"/>
	<path class="st1" d="M291.8,43.4c0-1,0.3-1.8,0.8-2.2c0.5-0.4,1-0.6,1.7-0.6c0.7,0,1.4,0.2,1.8,0.7c0.5,0.5,0.7,1.2,0.7,2
		c0,0.7-0.1,1.3-0.3,1.7s-0.5,0.7-0.9,0.9c-0.4,0.2-0.8,0.3-1.3,0.3c-0.8,0-1.4-0.2-1.8-0.7C292,45,291.8,44.3,291.8,43.4z
		 M292.7,43.4c0,0.7,0.2,1.2,0.5,1.6s0.7,0.5,1.1,0.5c0.5,0,0.8-0.2,1.1-0.5s0.5-0.9,0.5-1.6c0-0.7-0.2-1.2-0.5-1.5
		s-0.7-0.5-1.1-0.5c-0.5,0-0.8,0.2-1.1,0.5C292.9,42.2,292.7,42.7,292.7,43.4z"/>
	<path class="st1" d="M301.5,46.1v-0.7c-0.3,0.5-0.9,0.8-1.5,0.8c-0.4,0-0.8-0.1-1.2-0.4c-0.4-0.2-0.6-0.6-0.8-1s-0.3-0.9-0.3-1.5
		c0-0.5,0.1-1,0.3-1.5c0.2-0.4,0.5-0.8,0.8-1c0.4-0.2,0.8-0.4,1.2-0.4c0.3,0,0.6,0.1,0.9,0.2s0.5,0.3,0.6,0.5v-2.7h0.9v7.5H301.5z
		 M298.6,43.4c0,0.7,0.1,1.2,0.4,1.6c0.3,0.3,0.6,0.5,1,0.5c0.4,0,0.7-0.2,1-0.5c0.3-0.3,0.4-0.8,0.4-1.5c0-0.7-0.1-1.3-0.4-1.6
		s-0.6-0.5-1.1-0.5c-0.4,0-0.8,0.2-1,0.5C298.7,42.1,298.6,42.7,298.6,43.4z"/>
	<path class="st1" d="M303.7,48.2l-0.1-0.9c0.2,0.1,0.4,0.1,0.5,0.1c0.2,0,0.4,0,0.5-0.1c0.1-0.1,0.2-0.2,0.3-0.3
		c0.1-0.1,0.2-0.3,0.3-0.7c0-0.1,0-0.1,0.1-0.2l-2.1-5.5h1l1.1,3.2c0.1,0.4,0.3,0.8,0.4,1.3c0.1-0.4,0.2-0.8,0.4-1.2l1.2-3.2h0.9
		l-2.1,5.5c-0.2,0.6-0.4,1-0.5,1.2c-0.2,0.3-0.4,0.5-0.6,0.7s-0.5,0.2-0.8,0.2C304.2,48.3,304,48.3,303.7,48.2z"/>
</g>
<g>
	<polygon class="st11" points="276.4,55.8 290.7,60.6 289.1,79.7 276.4,86 263.7,79.7 260.5,60.6 	"/>
</g>
<g class="st6">
	<path class="st1" d="M274.1,74v-0.7c-0.3,0.5-0.9,0.8-1.5,0.8c-0.4,0-0.8-0.1-1.2-0.4c-0.4-0.2-0.6-0.6-0.8-1
		c-0.2-0.4-0.3-0.9-0.3-1.5c0-0.5,0.1-1,0.3-1.5c0.2-0.4,0.5-0.8,0.8-1c0.4-0.2,0.8-0.4,1.2-0.4c0.3,0,0.6,0.1,0.9,0.2
		c0.3,0.1,0.5,0.3,0.6,0.5v-2.7h0.9V74H274.1z M271.2,71.3c0,0.7,0.1,1.2,0.4,1.6c0.3,0.3,0.6,0.5,1,0.5c0.4,0,0.7-0.2,1-0.5
		c0.3-0.3,0.4-0.8,0.4-1.5c0-0.7-0.1-1.3-0.4-1.6c-0.3-0.3-0.6-0.5-1.1-0.5c-0.4,0-0.8,0.2-1,0.5S271.2,70.6,271.2,71.3z"/>
	<path class="st1" d="M276.5,67.5v-1.1h0.9v1.1H276.5z M276.5,74v-5.4h0.9V74H276.5z"/>
	<path class="st1" d="M280.3,74l-2.1-5.4h1l1.2,3.3c0.1,0.4,0.2,0.7,0.3,1.1c0.1-0.3,0.2-0.6,0.3-1l1.2-3.3h0.9l-2.1,5.4H280.3z"/>
</g>
<g>
	<polygon class="st12" points="246.9,4.9 261.2,9.6 259.6,28.7 246.9,35 234.2,28.7 231,9.6 	"/>
</g>
<g class="st6">
	<path class="st1" d="M237.5,23v-7.5h0.9v2.7c0.4-0.5,1-0.7,1.6-0.7c0.4,0,0.8,0.1,1.1,0.2c0.3,0.2,0.5,0.4,0.6,0.7s0.2,0.7,0.2,1.2
		V23h-0.9v-3.4c0-0.5-0.1-0.8-0.3-1s-0.5-0.3-0.8-0.3c-0.3,0-0.5,0.1-0.8,0.2c-0.2,0.1-0.4,0.3-0.5,0.6c-0.1,0.2-0.2,0.6-0.2,1v3
		H237.5z"/>
	<path class="st1" d="M245.4,22.2l0.1,0.8c-0.3,0.1-0.5,0.1-0.7,0.1c-0.3,0-0.6-0.1-0.8-0.2c-0.2-0.1-0.3-0.2-0.4-0.4
		s-0.1-0.5-0.1-1.1v-3.1h-0.7v-0.7h0.7v-1.3l0.9-0.6v1.9h0.9v0.7h-0.9v3.2c0,0.3,0,0.4,0,0.5s0.1,0.1,0.2,0.2c0.1,0,0.2,0.1,0.3,0.1
		C245.1,22.2,245.2,22.2,245.4,22.2z"/>
	<path class="st1" d="M246.3,23v-5.4h0.8v0.8c0.2-0.3,0.4-0.5,0.7-0.6c0.3-0.2,0.6-0.2,1-0.2c0.4,0,0.7,0.1,1,0.3
		c0.3,0.2,0.4,0.4,0.5,0.7c0.4-0.6,1-1,1.7-1c0.5,0,1,0.1,1.2,0.4c0.3,0.3,0.4,0.8,0.4,1.4V23h-0.9v-3.4c0-0.4,0-0.6-0.1-0.8
		c-0.1-0.2-0.2-0.3-0.3-0.4c-0.2-0.1-0.3-0.1-0.6-0.1c-0.4,0-0.7,0.1-1,0.4c-0.3,0.3-0.4,0.7-0.4,1.2V23h-0.9v-3.5
		c0-0.4-0.1-0.7-0.2-0.9s-0.4-0.3-0.7-0.3c-0.3,0-0.5,0.1-0.7,0.2c-0.2,0.1-0.4,0.3-0.5,0.6c-0.1,0.3-0.1,0.6-0.1,1.1V23H246.3z"/>
	<path class="st1" d="M255,23v-7.5h0.9V23H255z"/>
</g>
<g>
	<polygon class="st13" points="320.4,55.5 334.7,60.3 333.1,79.3 320.4,85.7 307.7,79.3 304.5,60.3 	"/>
</g>
<g class="st6">
	<path class="st1" d="M312.8,67.2v-1.1h0.9v1.1H312.8z M312.8,73.7v-5.4h0.9v5.4H312.8z"/>
	<path class="st1" d="M315.1,73.7v-5.4h0.8V69c0.2-0.3,0.4-0.5,0.7-0.6c0.3-0.2,0.6-0.2,1-0.2c0.4,0,0.7,0.1,1,0.3
		c0.3,0.2,0.4,0.4,0.5,0.7c0.4-0.6,1-1,1.7-1c0.5,0,1,0.1,1.2,0.4c0.3,0.3,0.4,0.8,0.4,1.4v3.7h-0.9v-3.4c0-0.4,0-0.6-0.1-0.8
		s-0.2-0.3-0.3-0.4c-0.2-0.1-0.3-0.1-0.6-0.1c-0.4,0-0.7,0.1-1,0.4c-0.3,0.3-0.4,0.7-0.4,1.2v3.2h-0.9v-3.5c0-0.4-0.1-0.7-0.2-0.9
		s-0.4-0.3-0.7-0.3c-0.3,0-0.5,0.1-0.7,0.2s-0.4,0.3-0.5,0.6c-0.1,0.3-0.1,0.6-0.1,1.1v2.8H315.1z"/>
	<path class="st1" d="M323.7,74.1l0.9,0.1c0,0.3,0.1,0.5,0.3,0.6c0.2,0.2,0.5,0.3,0.9,0.3c0.4,0,0.8-0.1,1-0.3
		c0.2-0.2,0.4-0.4,0.5-0.7c0-0.2,0.1-0.6,0.1-1.2c-0.4,0.5-0.9,0.7-1.5,0.7c-0.7,0-1.3-0.3-1.7-0.8c-0.4-0.5-0.6-1.2-0.6-1.9
		c0-0.5,0.1-1,0.3-1.4c0.2-0.4,0.5-0.8,0.8-1s0.8-0.4,1.3-0.4c0.6,0,1.2,0.3,1.6,0.8v-0.7h0.9v4.7c0,0.8-0.1,1.4-0.3,1.8
		c-0.2,0.4-0.4,0.6-0.8,0.8s-0.8,0.3-1.4,0.3c-0.6,0-1.2-0.1-1.6-0.4C323.8,75.2,323.7,74.7,323.7,74.1z M324.4,70.9
		c0,0.7,0.1,1.2,0.4,1.6s0.6,0.5,1.1,0.5c0.4,0,0.8-0.2,1.1-0.5s0.4-0.8,0.4-1.5c0-0.7-0.1-1.2-0.4-1.5c-0.3-0.3-0.7-0.5-1.1-0.5
		c-0.4,0-0.8,0.2-1,0.5S324.4,70.2,324.4,70.9z"/>
</g>
</svg>
